<svg width="20" height="17" viewBox="0 0 20 17" fill="none" xmlns="http://www.w3.org/2000/svg">
<path d="M19.5556 2.43654C18.8283 2.75554 18.0534 2.96699 17.2456 3.06965C18.0767 2.57343 18.711 1.79365 19.0092 0.853764C18.2343 1.31576 17.3788 1.6421 16.467 1.82421C15.7312 1.04076 14.6826 0.555542 13.5386 0.555542C11.319 0.555542 9.53211 2.3571 9.53211 4.56565C9.53211 4.88343 9.559 5.18899 9.625 5.47988C6.292 5.31732 3.34278 3.71988 1.36156 1.28643C1.01567 1.88654 0.812778 2.57343 0.812778 3.31288C0.812778 4.70132 1.52778 5.9321 2.59356 6.64465C1.94944 6.63243 1.31756 6.44543 0.782222 6.15088C0.782222 6.1631 0.782222 6.17899 0.782222 6.19488C0.782222 8.1431 2.17189 9.76132 3.99422 10.1341C3.66789 10.2233 3.31222 10.2661 2.94311 10.2661C2.68644 10.2661 2.42733 10.2514 2.18411 10.1977C2.70356 11.7853 4.17756 12.9525 5.93022 12.9904C4.56622 14.0574 2.83433 14.7003 0.959444 14.7003C0.630667 14.7003 0.315333 14.6857 0 14.6453C1.77589 15.7905 3.88056 16.4444 6.15022 16.4444C13.5276 16.4444 17.5609 10.3333 17.5609 5.03621C17.5609 4.85899 17.5548 4.68788 17.5462 4.51799C18.3419 3.95332 19.0104 3.2481 19.5556 2.43654Z" fill="#2D2D2D"/>
</svg>
