<?xml version="1.0" encoding="UTF-8"?>
<!DOCTYPE svg PUBLIC "-//W3C//DTD SVG 1.1//EN" "http://www.w3.org/Graphics/SVG/1.1/DTD/svg11.dtd">
<!-- Creator: CorelDRAW -->
<svg xmlns="http://www.w3.org/2000/svg" xml:space="preserve" width="5.00696in" height="4.25243in" version="1.1" style="shape-rendering:geometricPrecision; text-rendering:geometricPrecision; image-rendering:optimizeQuality; fill-rule:evenodd; clip-rule:evenodd"
viewBox="0 0 745.46 633.13"
 xmlns:xlink="http://www.w3.org/1999/xlink"
 xmlns:xodm="http://www.corel.com/coreldraw/odm/2003">
 <defs>
  <style type="text/css">
   <![CDATA[
    .fil0 {fill:#007BFF}
   ]]>
  </style>
 </defs>
 <g id="Layer_x0020_1">
  <metadata id="CorelCorpID_0Corel-Layer"/>
  <polygon class="fil0" points="415.72,0 367.43,0 347.4,34.7 296.08,123.58 276.05,158.28 204.7,281.86 203.21,284.44 203.21,281.86 52.25,281.86 32.22,316.56 -0,372.36 -0,474.84 -0,516.83 -0,551.53 49.01,551.53 97.29,551.53 203.21,551.53 263.35,551.53 311.03,551.53 331.06,516.83 355.31,474.84 458.96,474.84 423.86,506.93 418.14,516.83 398.11,551.53 351,633.13 399.97,633.13 534.8,633.13 604.89,511.73 574.53,474.84 491.35,474.84 572.34,334.56 582.73,316.56 553.81,281.86 466.72,281.86 419.05,281.86 399.01,316.56 307.63,474.84 283.38,516.83 203.21,516.83 203.21,474.84 203.21,368.07 221.72,336.02 232.95,316.56 252.99,281.86 324.34,158.28 490.39,158.28 538.07,158.28 625.15,158.28 694.15,123.58 734.14,54.32 745.46,34.7 716.54,0 629.45,0 581.78,0 "/>
 </g>
</svg>
